<svg xmlns="http://www.w3.org/2000/svg" height="512" viewBox="0 0 511 512" width="512"><path d="M506.18 303.766l-54.688-38.864v-68.906c0-8.285-6.719-15-15-15-8.285 0-15 6.715-15 15v47.59l-30-21.32v-56.27c0-8.281-6.715-15-15-15s-15 6.719-15 15v34.95l-45-31.977V60c0-33.086-26.914-60-59.996-60-33.086 0-60 26.914-60 60v108.969l-45 31.976v-34.949c0-8.281-6.715-15-15-15-8.281 0-15 6.719-15 15v56.27L91.5 243.586v-47.59c0-8.285-6.719-15-15-15-8.285 0-15 6.715-15 15v68.906L6.812 303.766A14.997 14.997 0 0 0 .5 315.992v30c0 9.996 9.582 17.137 19.102 14.43l177.535-50.469 4.625 60.402-74.047 53.477a14.997 14.997 0 0 0-6.219 12.16v61c0 10.317 10.172 17.5 19.856 14.192l69.37-23.735.817 10.684c.598 7.816 7.117 13.855 14.957 13.855h60c7.84 0 14.356-6.039 14.953-13.855l.82-10.684 69.368 23.735c9.707 3.32 19.855-3.895 19.855-14.192v-61c0-4.816-2.312-9.34-6.219-12.16l-74.043-53.477 4.622-60.402 177.535 50.469c1.351.383 2.73.57 4.101.57 8.29 0 15-6.726 15-15v-30c0-4.855-2.351-9.414-6.308-12.226zm-309.684-24.817L30.5 326.137v-2.403l165.996-117.96zm-45 197.055V443.66l52.95-38.238 3.91 51.133zm135-175.582l-13.898 181.57H240.39c-.149-1.937-13.551-177.055-13.895-181.57V60c0-16.543 13.457-30 30-30 16.54 0 30 13.457 30 30zm74.996 143.238v32.344l-56.86-19.45 3.915-51.132zm121-117.523l-166-47.188v-73.176l166 117.961zm0 0" fill="#FFF"/></svg>