<svg version="1.1" id="Capa_1" xmlns="http://www.w3.org/2000/svg" x="0" y="0" viewBox="0 0 512 512" xml:space="preserve"><style>.st0{fill:#3b5998}</style><path class="st0" d="M448 0H64C28.7 0 0 28.7 0 64v384c0 35.3 28.7 64 64 64h192V336h-64v-80h64v-64c0-53 43-96 96-96h64v80h-32c-17.7 0-32-1.7-32 16v64h80l-32 80h-48v176h96c35.3 0 64-28.7 64-64V64c0-35.3-28.7-64-64-64z"/><path class="st0" d="M0 0h70v80H0zm448 0h64v61h-64zm0 446h64v64h-64zM0 446h63v66H0z"/><path class="st0" d="M453 497h59v15h-59z"/></svg>