<?xml version="1.0"?>
<svg xmlns="http://www.w3.org/2000/svg" height="512px" viewBox="0 -91 512 512" width="512px"><path d="m503.707031 151.582031-53.828125-26.914062-28.328125-113.308594c-1.667969-6.675781-7.667969-11.359375-14.550781-11.359375h-181c-8.285156 0-15 6.714844-15 15v45h-196c-8.285156 0-15 6.714844-15 15v180c0 8.285156 6.714844 15 15 15h45c0 33.085938 26.914062 60 60 60s60-26.914062 60-60h152c0 33.085938 26.914062 60 60 60s60-26.914062 60-60h45c8.285156 0 15-6.714844 15-15v-90c0-5.683594-3.210938-10.875-8.292969-13.417969zm-85.917969-31.582031h-116.789062v-90h94.289062zm-176.789062-90h30v90h-30zm-30 90h-91v-30h91zm-121-30v30h-60v-30zm30 210c-16.542969 0-30-13.457031-30-30s13.457031-30 30-30 30 13.457031 30 30-13.457031 30-30 30zm51.929688-60c-10.394532-17.914062-29.769532-30-51.929688-30s-41.535156 12.085938-51.929688 30h-38.070312v-90h181v90zm220.070312 60c-16.542969 0-30-13.457031-30-30s13.457031-30 30-30 30 13.457031 30 30-13.457031 30-30 30zm51.929688-60c-10.394532-17.914062-29.769532-30-51.929688-30s-41.535156 12.085938-51.929688 30h-99.070312v-90h192.460938l48.539062 24.269531v5.730469h-15c-8.285156 0-15 6.714844-15 15s6.714844 15 15 15h15v30zm0 0" fill="#FFFFFF"/></svg>
