<svg xmlns="http://www.w3.org/2000/svg" height="512" viewBox="0 -91 512 512" width="512"><path d="M503.707 151.582l-53.828-26.914L421.55 11.359A14.997 14.997 0 0 0 407 0H226c-8.285 0-15 6.715-15 15v45H15C6.715 60 0 66.715 0 75v180c0 8.285 6.715 15 15 15h45c0 33.086 26.914 60 60 60s60-26.914 60-60h152c0 33.086 26.914 60 60 60s60-26.914 60-60h45c8.285 0 15-6.715 15-15v-90a15 15 0 0 0-8.293-13.418zM417.789 120H301V30h94.29zM241 30h30v90h-30zm-30 90h-91V90h91zM90 90v30H30V90zm30 210c-16.543 0-30-13.457-30-30s13.457-30 30-30 30 13.457 30 30-13.457 30-30 30zm51.93-60c-10.395-17.914-29.77-30-51.93-30s-41.535 12.086-51.93 30H30v-90h181v90zM392 300c-16.543 0-30-13.457-30-30s13.457-30 30-30 30 13.457 30 30-13.457 30-30 30zm51.93-60c-10.395-17.914-29.77-30-51.93-30s-41.535 12.086-51.93 30H241v-90h192.46L482 174.27V180h-15c-8.285 0-15 6.715-15 15s6.715 15 15 15h15v30zm0 0" fill="#FFF"/></svg>