<svg xmlns="http://www.w3.org/2000/svg" height="512" width="512"><path d="M15 427.148c7.625 0 15.438 3.079 20.395 8.032C46.238 446.027 60.66 452 76 452s29.762-5.973 40.605-16.82c10.696-10.692 28.094-10.696 38.79 0C166.238 446.027 180.66 452 196 452s29.762-5.973 40.605-16.82c10.641-10.64 28.055-10.73 38.79 0C286.238 446.027 300.66 452 316 452s29.762-5.973 40.605-16.82c10.696-10.692 28.094-10.696 38.79 0C406.238 446.027 420.66 452 436 452s29.762-5.973 40.605-16.82c4.957-4.953 12.77-8.032 20.395-8.032 8.285 0 15-6.718 15-15 0-8.285-6.715-15-15-15-15.52 0-31.074 6.286-41.605 16.82-5.18 5.18-12.07 8.032-19.395 8.032s-14.215-2.852-19.395-8.031a57.098 57.098 0 0 0-24.433-14.485l57.664-137.687a15.006 15.006 0 0 0-9.094-20.027L391 225.187V166c0-24.813-20.188-45-45-45h-30V15c0-8.285-6.715-15-15-15h-90c-8.285 0-15 6.715-15 15v106h-30c-24.813 0-45 20.188-45 45v59.188L71.258 241.77a15.007 15.007 0 0 0-8.918 8.03 15.006 15.006 0 0 0-.176 11.997l57.66 137.687a57.063 57.063 0 0 0-24.43 14.485C90.215 419.149 83.325 422 76 422s-14.215-2.852-19.395-8.031c-10.53-10.535-26.085-16.82-41.605-16.82-8.285 0-15 6.714-15 15 0 8.285 6.715 15 15 15zm200.395-13.18c-5.18 5.18-12.07 8.032-19.395 8.032s-14.215-2.852-19.395-8.031a57.09 57.09 0 0 0-24.23-14.43l-33.055-78.93L241 280.063v119.105a57.01 57.01 0 0 0-25.605 14.8zM316 422c-7.324 0-14.215-2.852-19.395-8.031A57.002 57.002 0 0 0 271 399.172v-119.11l121.68 40.547-33.055 78.93a57.057 57.057 0 0 0-24.23 14.426C330.215 419.148 323.325 422 316 422zm88.3-129.14L271 248.44v-31.629l144.918 48.305zM286 30v31h-60V30zm-60 61h60v30h-60zm-75 75c0-8.27 6.73-15 15-15h180c8.27 0 15 6.73 15 15v49.188L260.742 181.77a14.978 14.978 0 0 0-9.484 0L151 215.187zm90 50.813v31.625l-133.3 44.421-11.618-27.742zm0 0" fill="#FFF"/><path d="M497 457.148c-15.52 0-31.074 6.286-41.605 16.82-5.18 5.18-12.07 8.032-19.395 8.032s-14.215-2.852-19.395-8.031c-22.39-22.39-58.824-22.395-81.21 0-5.18 5.18-12.07 8.031-19.395 8.031s-14.215-2.852-19.395-8.031c-22.39-22.39-58.824-22.395-81.21 0-5.18 5.18-12.07 8.031-19.395 8.031s-14.215-2.852-19.395-8.031c-22.39-22.39-58.824-22.395-81.21 0C90.215 479.149 83.325 482 76 482s-14.215-2.852-19.395-8.031c-10.53-10.535-26.085-16.82-41.605-16.82-8.285 0-15 6.714-15 15 0 8.28 6.715 15 15 15 7.625 0 15.437 3.078 20.395 8.03C46.238 506.028 60.66 512 76 512s29.762-5.973 40.605-16.82c10.696-10.696 28.094-10.696 38.79 0C166.238 506.027 180.66 512 196 512s29.762-5.973 40.605-16.82c10.696-10.696 28.094-10.696 38.79 0C286.238 506.027 300.66 512 316 512s29.762-5.973 40.605-16.82c10.696-10.696 28.094-10.696 38.79 0C406.238 506.027 420.66 512 436 512s29.762-5.973 40.605-16.82c4.957-4.953 12.77-8.032 20.395-8.032 8.285 0 15-6.718 15-15 0-8.285-6.715-15-15-15zm0 0" fill="#FFF"/></svg>