<?xml version="1.0" encoding="UTF-8"?>
<svg width="18px" height="22px" viewBox="0 0 18 22" version="1.1" xmlns="http://www.w3.org/2000/svg" xmlns:xlink="http://www.w3.org/1999/xlink">
    <!-- Generator: Sketch 49 (51002) - http://www.bohemiancoding.com/sketch -->
    <title>Group 27</title>
    <desc>Created with Sketch.</desc>
    <defs></defs>
    <g id="Icon" stroke="none" stroke-width="1" fill="none" fill-rule="evenodd">
        <g id="Group-27" fill="#6C7890" fill-rule="nonzero">
            <path d="M13.6354639,22 L13.6439732,18.6242012 L13.6439732,12.4662361 C16.0110359,12.6547909 17.8813187,14.7070235 17.8813187,17.2024921 L17.8813187,22 L13.6354639,22 Z M4.45714286,22 L0.342857143,22 L0.342857143,17.2024921 C0.342857143,14.7504296 2.14864245,12.726318 4.45714286,12.4777593 L4.45714286,22 Z M6.95825893,12.4521073 L11.1428571,12.4521073 L11.1428571,17.2328359 L6.95825893,17.2328359 L6.95825893,12.4521073 Z" id="Combined-Shape"></path>
            <path d="M9,11.5740741 C5.81876374,11.5740741 3.23076923,8.97800926 3.23076923,5.78703704 C3.23076923,2.59606481 5.81876374,0 9,0 C12.1812363,0 14.7692308,2.59606481 14.7692308,5.78703704 C14.7692308,8.97800926 12.1812363,11.5740741 9,11.5740741 Z M8.9130299,7.10946896 C8.00159001,6.14649142 7.30408145,6.4697863 6.7136659,6.90050471 C6.12184298,7.33224983 5.90663464,7.60209053 5.42241588,7.65605867 C4.93819712,7.71002681 4.72298878,7.38621797 4.61538462,7.27828169 C4.83059295,8.35764449 5.63762422,9.11319846 6.92887424,9.1671666 C7.75571635,9.20172468 8.41710156,8.83796064 8.9130299,8.07587446 C9.40895823,8.83796064 10.0703434,9.20172468 10.8971856,9.1671666 C12.1884356,9.11319846 12.9954668,8.35764449 13.2106752,7.27828169 C13.103071,7.38621797 12.8878627,7.71002681 12.4036439,7.65605867 C11.9194252,7.60209053 11.7042168,7.33224983 11.1123939,6.90050471 C10.5219783,6.4697863 9.82446979,6.14649142 8.9130299,7.10946896 Z" id="Combined-Shape"></path>
        </g>
    </g>
</svg>