<?xml version="1.0" encoding="UTF-8"?>
<svg width="24px" height="19px" viewBox="0 0 24 19" version="1.1" xmlns="http://www.w3.org/2000/svg" xmlns:xlink="http://www.w3.org/1999/xlink">
    <!-- Generator: Sketch 49 (51002) - http://www.bohemiancoding.com/sketch -->
    <title>Combined Shape</title>
    <desc>Created with Sketch.</desc>
    <defs></defs>
    <g id="Icon" stroke="none" stroke-width="1" fill="none" fill-rule="evenodd">
        <path d="M5,9 L19,9 C21.7614237,9 24,11.2385763 24,14 C24,16.7614237 21.7614237,19 19,19 L5,19 C2.23857625,19 0,16.7614237 0,14 C0,11.2385763 2.23857625,9 5,9 Z M5,16 C6.1045695,16 7,15.1045695 7,14 C7,12.8954305 6.1045695,12 5,12 C3.8954305,12 3,12.8954305 3,14 C3,15.1045695 3.8954305,16 5,16 Z M12,16 C13.1045695,16 14,15.1045695 14,14 C14,12.8954305 13.1045695,12 12,12 C10.8954305,12 10,12.8954305 10,14 C10,15.1045695 10.8954305,16 12,16 Z M19,16 C20.1045695,16 21,15.1045695 21,14 C21,12.8954305 20.1045695,12 19,12 C17.8954305,12 17,12.8954305 17,14 C17,15.1045695 17.8954305,16 19,16 Z M2,3.83990552 L4.21769737,0.173339387 L8.6530921,0.173339387 L10.8707895,3.83990552 L8.6530921,7.50647165 L4.21769737,7.50647165 L2,3.83990552 Z M13,3.78649889 L15.25,0.066526132 L19.75,0.066526132 L22,3.78649889 L19.75,7.50647165 L15.25,7.50647165 L13,3.78649889 Z" id="Combined-Shape" fill="#6C7890"></path>
    </g>
</svg>