<svg xmlns="http://www.w3.org/2000/svg" viewBox="0 0 512 512"><path fill="#4c75a3" stroke="#000" stroke-miterlimit="10" d="M0 0h512v512H0z"/><path d="M455.4 343.2c-1.1-1.8-7.8-15.8-40.3-44.8-34-30.3-29.4-25.4 11.5-77.8 24.9-31.9 34.9-51.4 31.8-59.8-3-7.9-21.3-5.9-21.3-5.9l-61 .3s-4.5-.6-7.9 1.3c-3.3 1.9-5.4 6.3-5.4 6.3s-9.7 24.7-22.6 45.7c-27.2 44.3-38.1 46.7-42.5 43.9-10.3-6.4-7.7-25.8-7.7-39.5 0-43 6.8-60.9-13.2-65.5-6.6-1.5-11.5-2.6-28.5-2.7-21.8-.2-40.2.1-50.7 5-7 3.3-12.3 10.6-9 11 4 .5 13.2 2.4 18 8.7 6.3 8.2 6 26.5 6 26.5s3.6 50.6-8.4 56.9c-8.2 4.3-19.5-4.5-43.8-44.7-12.4-20.6-21.8-43.4-21.8-43.4s-1.8-4.2-5-6.5c-3.9-2.8-9.4-3.6-9.4-3.6l-58 .3s-8.7.2-11.9 3.9c-2.8 3.2-.2 9.9-.2 9.9s45.4 102.1 96.8 153.5c47.2 47.2 100.7 44.1 100.7 44.1h24.3s7.3-.8 11.1-4.7c3.5-3.6 3.3-10.2 3.3-10.2s-.5-31.3 14.6-35.9c14.9-4.5 34 30.2 54.3 43.6 15.3 10.1 27 7.9 27 7.9l54.2-.7c.1 0 28.4-1.7 15-23.1z" fill="#fff"/></svg>