<?xml version="1.0"?>
<svg xmlns="http://www.w3.org/2000/svg" height="512px" viewBox="0 0 512 512" width="512px"><path d="m15 427.148438c7.625 0 15.4375 3.078124 20.394531 8.03125 10.84375 10.847656 25.265625 16.820312 40.605469 16.820312s29.761719-5.972656 40.605469-16.820312c10.695312-10.691407 28.09375-10.695313 38.789062 0 10.84375 10.847656 25.265625 16.820312 40.605469 16.820312s29.761719-5.972656 40.605469-16.820312c10.640625-10.640626 28.054687-10.730469 38.789062 0 10.84375 10.847656 25.265625 16.820312 40.605469 16.820312s29.761719-5.972656 40.605469-16.820312c10.695312-10.691407 28.09375-10.695313 38.789062 0 10.84375 10.847656 25.265625 16.820312 40.605469 16.820312s29.761719-5.972656 40.605469-16.820312c4.957031-4.953126 12.769531-8.03125 20.394531-8.03125 8.285156 0 15-6.71875 15-15 0-8.285157-6.714844-15-15-15-15.519531 0-31.074219 6.285156-41.605469 16.820312-5.179687 5.179688-12.070312 8.03125-19.394531 8.03125s-14.214844-2.851562-19.394531-8.03125c-7.046875-7.046875-15.484375-11.871094-24.433594-14.484375l57.664063-137.6875c1.609374-3.851563 1.546874-8.199219-.179688-11.996094-1.726562-3.800781-4.957031-6.710937-8.914062-8.03125l-49.742188-16.582031v-59.1875c0-24.8125-20.1875-45-45-45h-30v-106c0-8.285156-6.714844-15-15-15h-90c-8.285156 0-15 6.714844-15 15v106h-30c-24.8125 0-45 20.1875-45 45v59.1875l-49.742188 16.582031c-3.960937 1.320313-7.191406 4.230469-8.917968 8.03125-1.722656 3.796875-1.789063 8.144531-.175782 11.996094l57.660157 137.6875c-8.949219 2.613281-17.386719 7.4375-24.429688 14.484375-5.179687 5.179688-12.070312 8.03125-19.394531 8.03125s-14.214844-2.851562-19.394531-8.03125c-10.53125-10.535156-26.085938-16.820312-41.605469-16.820312-8.285156 0-15 6.714843-15 15 0 8.285156 6.714844 15 15 15zm200.394531-13.179688c-5.179687 5.179688-12.070312 8.03125-19.394531 8.03125s-14.214844-2.851562-19.394531-8.03125c-6.992188-6.992188-15.355469-11.804688-24.230469-14.429688l-33.054688-78.929687 121.679688-40.546875v119.105469c-9.386719 2.523437-18.253906 7.445312-25.605469 14.800781zm100.605469 8.03125c-7.324219 0-14.214844-2.851562-19.394531-8.03125-7.351563-7.355469-16.21875-12.273438-25.605469-14.796875v-119.109375l121.679688 40.546875-33.054688 78.929687c-8.878906 2.625-17.238281 7.433594-24.230469 14.425782-5.179687 5.183594-12.070312 8.035156-19.394531 8.035156zm88.300781-129.140625-133.300781-44.417969v-31.628906l144.917969 48.304688zm-118.300781-262.859375v31h-60v-31zm-60 61h60v30h-60zm-75 75c0-8.269531 6.730469-15 15-15h180c8.269531 0 15 6.730469 15 15v49.1875l-100.257812-33.417969c-3.078126-1.027343-6.40625-1.027343-9.484376 0l-100.257812 33.417969zm90 50.8125v31.625l-133.300781 44.421875-11.617188-27.742187zm0 0" fill="#FFFFFF"/><path d="m497 457.148438c-15.519531 0-31.074219 6.285156-41.605469 16.820312-5.179687 5.179688-12.070312 8.03125-19.394531 8.03125s-14.214844-2.851562-19.394531-8.03125c-22.390625-22.390625-58.824219-22.394531-81.210938 0-5.179687 5.179688-12.070312 8.03125-19.394531 8.03125s-14.214844-2.851562-19.394531-8.03125c-22.390625-22.390625-58.824219-22.394531-81.210938 0-5.179687 5.179688-12.070312 8.03125-19.394531 8.03125s-14.214844-2.851562-19.394531-8.03125c-22.390625-22.390625-58.824219-22.394531-81.210938 0-5.179687 5.179688-12.070312 8.03125-19.394531 8.03125s-14.214844-2.851562-19.394531-8.03125c-10.53125-10.535156-26.085938-16.820312-41.605469-16.820312-8.285156 0-15 6.714843-15 15 0 8.28125 6.714844 15 15 15 7.625 0 15.4375 3.078124 20.394531 8.03125 10.84375 10.847656 25.265625 16.820312 40.605469 16.820312s29.761719-5.972656 40.605469-16.820312c10.695312-10.695313 28.09375-10.695313 38.789062 0 10.84375 10.847656 25.265625 16.820312 40.605469 16.820312s29.761719-5.972656 40.605469-16.820312c10.695312-10.695313 28.09375-10.695313 38.789062 0 10.84375 10.847656 25.265625 16.820312 40.605469 16.820312s29.761719-5.972656 40.605469-16.820312c10.695312-10.695313 28.09375-10.695313 38.789062 0 10.84375 10.847656 25.265625 16.820312 40.605469 16.820312s29.761719-5.972656 40.605469-16.820312c4.957031-4.953126 12.769531-8.03125 20.394531-8.03125 8.285156 0 15-6.71875 15-15 0-8.285157-6.714844-15-15-15zm0 0" fill="#FFFFFF"/></svg>
