<?xml version="1.0" encoding="UTF-8"?>
<svg width="18px" height="22px" viewBox="0 0 18 22" version="1.1" xmlns="http://www.w3.org/2000/svg" xmlns:xlink="http://www.w3.org/1999/xlink">
    <!-- Generator: Sketch 49 (51002) - http://www.bohemiancoding.com/sketch -->
    <title>Group 28</title>
    <desc>Created with Sketch.</desc>
    <defs></defs>
    <g id="Icon" stroke="none" stroke-width="1" fill="none" fill-rule="evenodd">
        <g id="Group-28" transform="translate(-1.000000, 0.000000)" fill="#6C7890" fill-rule="nonzero">
            <path d="M10.5346898,7.79630205 C6.22960904,7.79630205 2.72727273,4.29895183 2.72727273,0 L18.3421068,0 C18.3421068,4.29895183 14.8397705,7.79630205 10.5346898,7.79630205 Z" id="Shape-Copy-3"></path>
            <g id="Group-13" transform="translate(9.882042, 12.878079) rotate(-10.000000) translate(-9.882042, -12.878079) translate(1.882042, 1.878079)">
                <rect id="Rectangle-path-Copy" transform="translate(7.513634, 4.186110) rotate(-135.000000) translate(-7.513634, -4.186110) " x="6.09410389" y="-0.288125515" width="2.83906074" height="8.94847079"></rect>
                <path d="M3.31223753,12.0954288 C1.48586976,12.0954288 0,10.6285352 0,8.82549216 C0,7.02244912 1.48586976,5.55555556 3.31223753,5.55555556 C5.13860531,5.55555556 6.62447507,7.02244912 6.62447507,8.82549216 C6.62447507,10.6285352 5.13860531,12.0954288 3.31223753,12.0954288 Z M3.23771219,10.2102102 C4.02169717,10.2102102 4.65724256,9.58278143 4.65724256,8.80880881 C4.65724256,8.03483619 4.02169717,7.40740741 3.23771219,7.40740741 C2.45372721,7.40740741 1.81818182,8.03483619 1.81818182,8.80880881 C1.81818182,9.58278143 2.45372721,10.2102102 3.23771219,10.2102102 Z" id="Combined-Shape"></path>
                <path d="M7.77316679,8.24193149 L10.6122275,8.24193149 L10.6122275,19.8460425 C10.6122275,20.6300275 9.97668214,21.2655729 9.19269716,21.2655729 L9.19269716,21.2655729 C8.40871218,21.2655729 7.77316679,20.6300275 7.77316679,19.8460425 L7.77316679,8.24193149 Z" id="Rectangle-path" transform="translate(9.192697, 14.753752) rotate(-45.000000) translate(-9.192697, -14.753752) "></path>
                <path d="M10.8643209,18.893853 L8.76131298,18.893853 C6.73201545,18.893853 5.08104905,17.2435978 5.08104905,15.2151743 L5.08104905,11.886846 L14.5445849,11.886846 L14.5445849,15.2151743 C14.5445849,17.2435978 12.8936185,18.893853 10.8643209,18.893853 Z" id="Shape-Copy-6" transform="translate(9.812817, 15.390350) rotate(-45.000000) translate(-9.812817, -15.390350) "></path>
            </g>
        </g>
    </g>
</svg>