<?xml version="1.0" encoding="utf-8"?>
<!-- Generator: Adobe Illustrator 21.0.0, SVG Export Plug-In . SVG Version: 6.00 Build 0)  -->
<svg version="1.1" xmlns="http://www.w3.org/2000/svg" xmlns:xlink="http://www.w3.org/1999/xlink" x="0px" y="0px"
	 viewBox="0 0 512 512" style="enable-background:new 0 0 512 512;" xml:space="preserve">
<style type="text/css">
	.st0{fill:#4C75A3;stroke:#000000;stroke-miterlimit:10;}
	.st1{fill:#FFFFFF;}
</style>
<g id="Слой_2">
	<rect class="st0" width="512" height="512"/>
</g>
<g id="Capa_1">
	<g>
		<g>
			<path class="st1" d="M455.4,343.2c-1.1-1.8-7.8-15.8-40.3-44.8c-34-30.3-29.4-25.4,11.5-77.8c24.9-31.9,34.9-51.4,31.8-59.8
				c-3-7.9-21.3-5.9-21.3-5.9l-61,0.3c0,0-4.5-0.6-7.9,1.3c-3.3,1.9-5.4,6.3-5.4,6.3s-9.7,24.7-22.6,45.7
				c-27.2,44.3-38.1,46.7-42.5,43.9c-10.3-6.4-7.7-25.8-7.7-39.5c0-43,6.8-60.9-13.2-65.5c-6.6-1.5-11.5-2.6-28.5-2.7
				c-21.8-0.2-40.2,0.1-50.7,5c-7,3.3-12.3,10.6-9,11c4,0.5,13.2,2.4,18,8.7c6.3,8.2,6,26.5,6,26.5s3.6,50.6-8.4,56.9
				c-8.2,4.3-19.5-4.5-43.8-44.7c-12.4-20.6-21.8-43.4-21.8-43.4s-1.8-4.2-5-6.5c-3.9-2.8-9.4-3.6-9.4-3.6l-58,0.3
				c0,0-8.7,0.2-11.9,3.9c-2.8,3.2-0.2,9.9-0.2,9.9s45.4,102.1,96.8,153.5c47.2,47.2,100.7,44.1,100.7,44.1h24.3
				c0,0,7.3-0.8,11.1-4.7c3.5-3.6,3.3-10.2,3.3-10.2s-0.5-31.3,14.6-35.9c14.9-4.5,34,30.2,54.3,43.6c15.3,10.1,27,7.9,27,7.9
				l54.2-0.7C440.5,366.3,468.8,364.6,455.4,343.2z"/>
		</g>
	</g>
</g>
</svg>
